<svg width="88" height="88" viewBox="0 0 88 88" fill="none" xmlns="http://www.w3.org/2000/svg">
<mask id="mask0_358_1526" style="mask-type:luminance" maskUnits="userSpaceOnUse" x="0" y="0" width="88" height="88">
<path d="M88 44C88 68.3005 68.3005 88 44 88C19.6995 88 -2.98551e-06 68.3005 -1.9233e-06 44C-8.61091e-07 19.6995 19.6995 8.61091e-07 44 1.9233e-06C68.3005 2.98551e-06 88 19.6995 88 44Z" fill="white"/>
</mask>
<g mask="url(#mask0_358_1526)">
<path d="M-29.674 54.1084L53.832 -28.2617L60.6636 -21.523L-22.8424 60.8471L-29.674 54.1084Z" fill="white"/>
<path d="M-22.7663 60.9248L60.7397 -21.4453L66.9972 -15.2729L-16.5088 67.0972L-22.7663 60.9248Z" fill="white"/>
<path d="M-15.8532 67.7432L67.6528 -14.627L73.3362 -9.02087L-10.1699 73.3492L-15.8532 67.7432Z" fill="white"/>
<path d="M-8.94699 74.5552L74.5591 -7.81494L79.6684 -2.77517L-3.83772 79.5949L-8.94699 74.5552Z" fill="white"/>
<path d="M-2.04026 81.3711L81.4658 -0.999023L86.001 3.47445L2.49491 85.8446L-2.04026 81.3711Z" fill="white"/>
<path d="M4.87429 88.1865L88.3804 5.81641L92.3382 9.72042L8.83214 92.0905L4.87429 88.1865Z" fill="white"/>
<path d="M11.7796 95L95.2856 12.6299L98.6694 15.9676L15.1633 98.3377L11.7796 95Z" fill="white"/>
<path d="M18.6863 101.812L102.192 19.4424L105.002 22.2138L21.4959 104.584L18.6863 101.812Z" fill="white"/>
<path d="M25.5999 108.633L109.106 26.2627L111.341 28.4678L27.8354 110.838L25.5999 108.633Z" fill="white"/>
<path d="M32.5071 115.446L116.013 33.0762L117.675 34.715L34.1685 117.085L32.5071 115.446Z" fill="white"/>
</g>
</svg>
