<svg width="602" height="602" viewBox="0 0 602 602" fill="none" xmlns="http://www.w3.org/2000/svg">
<mask id="mask0_232_903" style="mask-type:luminance" maskUnits="userSpaceOnUse" x="0" y="0" width="602" height="602">
<path d="M301 601.3C466.851 601.3 601.3 466.851 601.3 301C601.3 135.149 466.851 0.700195 301 0.700195C135.149 0.700195 0.699951 135.149 0.699951 301C0.699951 466.851 135.149 601.3 301 601.3Z" fill="white"/>
</mask>
<g mask="url(#mask0_232_903)">
<path d="M366.498 -189.187L-189.196 366.507L-143.722 411.981L411.972 -143.713L366.498 -189.187Z" fill="#829C00"/>
<path d="M412.474 -143.224L-143.22 412.47L-101.571 454.118L454.123 -101.576L412.474 -143.224Z" fill="#829C00"/>
<path d="M458.451 -97.2379L-97.2432 458.456L-59.42 496.279L496.274 -59.4148L458.451 -97.2379Z" fill="#829C00"/>
<path d="M504.427 -51.2619L-51.2668 504.432L-17.2692 538.43L538.425 -17.2642L504.427 -51.2619Z" fill="#829C00"/>
<path d="M550.411 -5.29263L-5.2832 550.401L24.8891 580.574L580.583 24.8796L550.411 -5.29263Z" fill="#829C00"/>
<path d="M596.377 40.6937L40.6833 596.388L67.0302 622.735L622.724 67.0405L596.377 40.6937Z" fill="#829C00"/>
<path d="M642.354 86.6556L86.6599 642.35L109.181 664.871L664.875 109.177L642.354 86.6556Z" fill="#829C00"/>
<path d="M688.33 132.632L132.636 688.326L151.332 707.022L707.026 151.328L688.33 132.632Z" fill="#829C00"/>
<path d="M734.307 178.618L178.613 734.312L193.483 749.182L749.177 193.488L734.307 178.618Z" fill="#829C00"/>
<path d="M780.29 224.587L224.596 780.281L235.641 791.326L791.335 235.632L780.29 224.587Z" fill="#829C00"/>
</g>
</svg>
