<svg width="37" height="40" viewBox="0 0 37 40" fill="none" xmlns="http://www.w3.org/2000/svg">
<path d="M17.4594 39.392C18.0621 39.6993 18.8185 39.6973 19.4212 39.3901C35.8456 30.9679 37.0121 14.5129 36.9977 9.83414C36.9962 9.45809 36.8798 9.09065 36.6628 8.7768C36.4457 8.46295 36.1376 8.21632 35.776 8.06712L19.2736 1.08907C19.011 0.978569 18.7271 0.921662 18.4401 0.921999C18.1531 0.922336 17.8693 0.979909 17.607 1.09103L1.2194 8.06908C0.863105 8.21836 0.559277 8.46226 0.344113 8.77173C0.128948 9.0812 0.0115169 9.44319 0.00580956 9.81457C-0.0638898 14.4699 0.918052 30.9601 17.4594 39.392ZM11.6907 16.9648L16.3913 21.4518L25.1919 13.0512L28.0906 15.8181L16.3913 26.9857L8.79203 19.7318L11.6907 16.9648Z" fill="#B4CF1F"/>
</svg>
