<svg width="43" height="42" viewBox="0 0 43 42" fill="none" xmlns="http://www.w3.org/2000/svg">
<path d="M41.7546 27.6502C41.5804 27.3834 41.5067 27.0344 41.433 26.7129C40.8334 24.1472 39.2756 22.5702 36.7832 21.9099C36.3711 21.8005 35.9457 21.6363 35.5973 21.39C33.8117 20.1242 31.7649 20.0763 30.0295 20.9692C28.5857 21.7115 26.971 21.8757 25.6913 22.8233C24.9911 22.2828 24.3747 21.8005 23.7449 21.3147C25.2424 20.4663 26.4316 19.0774 27.2959 17.1275C28.6828 13.994 29.0982 10.6621 28.6962 7.28565C28.2708 3.71766 26.2373 1.34014 22.8237 0.423346C21.4502 0.05389 19.9527 -0.0658411 18.5323 0.0333647C14.5424 0.307036 11.6949 2.64008 10.8574 6.23886C10.576 7.44301 10.5526 8.654 10.5626 9.9642C10.6095 10.645 10.6296 11.3291 10.71 12.0065C10.9881 14.3429 11.5542 16.5905 12.8406 18.5814C13.5776 19.724 14.462 20.634 15.5173 21.2668C13.9495 22.9465 12.0333 23.8325 10.0936 24.6809C9.6849 24.8588 9.29295 25.0811 8.87754 25.2487C7.79549 25.6934 7.03503 26.4666 6.44543 27.486C4.57612 30.7222 2.67331 33.9378 0.787254 37.1637C0.566153 37.5434 0.371852 37.9436 0 38.6484H2.13731C9.2226 38.6484 16.3079 38.6552 23.3898 38.6415C24.3546 38.6415 25.2122 38.7031 25.9861 39.4728C26.4249 39.9107 27.1653 40.0475 27.7783 40.287C28.1301 40.4238 28.5689 40.4033 28.8637 40.6119C31.1887 42.254 33.5035 42.2061 35.8418 40.6598C36.0663 40.5127 36.3276 40.3862 36.5889 40.3349C39.3124 39.8217 40.84 38.0942 41.4464 35.4088C41.5067 35.1419 41.5972 34.8614 41.7446 34.6391C43.2822 32.3094 43.2722 29.9901 41.758 27.6502H41.7546ZM16.0968 21.5781C16.8405 21.9339 17.6613 22.1631 18.5691 22.252C20.3748 22.4231 21.956 22.1905 23.3061 21.5473C22.0666 22.772 20.8874 23.9351 19.6445 25.1598C18.4318 23.9385 17.2961 22.796 16.0935 21.5815L16.0968 21.5781ZM39.9221 31.2113C39.9154 31.6561 39.8384 32.0974 39.7814 32.6789C39.2722 32.7439 38.9372 32.7473 38.619 32.8328C37.8652 33.0381 37.5939 33.6846 37.9423 34.3757C38.6223 35.7235 38.6257 35.7303 37.6006 36.7292C37.3225 36.9995 37.0076 37.2287 36.6391 37.5331C36.3008 37.3108 35.9859 37.109 35.671 36.9037C34.9373 36.4248 34.3343 36.6711 34.0764 37.4989C33.9357 37.9471 33.7481 38.6689 33.47 38.727C32.7364 38.8878 31.8721 38.9357 31.2021 38.662C30.8302 38.5115 30.7498 37.6221 30.4851 36.9208C29.6677 36.0348 29.0446 37.0576 28.1234 37.5845C27.4567 36.9345 26.7666 36.2572 26.0363 35.5422C26.435 34.9298 26.7365 34.468 27.038 34.0028C26.9576 33.2297 26.6427 32.7473 25.775 32.7952C25.0548 32.8363 24.8102 32.3608 24.8069 31.7005C24.8069 31.3584 24.8136 31.0163 24.8035 30.6777C24.7834 29.9456 25.0682 29.5556 25.8253 29.3983C27.172 29.1178 27.306 28.6559 26.4953 27.5168C26.3981 27.3799 26.3144 27.2328 26.2306 27.0823C26.2038 27.0344 26.2105 26.9729 26.167 26.6958C26.5522 26.2682 27.0145 25.7277 27.507 25.2111C27.9157 24.7835 28.3344 24.804 28.8503 25.1222C30.1434 25.9124 30.5119 25.7208 30.7565 24.243C30.7833 24.0788 30.8436 23.918 30.9341 23.5759C31.4768 23.5349 32.0697 23.4801 32.6593 23.4425C33.4935 23.3878 33.9893 23.6307 34.1032 24.633C34.2204 25.6695 34.8033 25.844 35.7279 25.3069C36.7698 24.7014 36.7865 24.7219 37.7982 25.7413C38.4046 26.3537 38.8166 26.8634 38.0997 27.7528C37.49 28.5088 37.758 29.1349 38.5955 29.3914C39.9255 29.7985 39.9355 29.7985 39.9121 31.2113H39.9221Z" fill="#B4CF1F"/>
<path d="M32.3875 28.4783C31.0006 28.4783 29.8348 29.6345 29.7946 31.0508C29.7511 32.5423 30.9269 33.7807 32.3909 33.7807C33.8448 33.7807 35.0441 32.5218 34.9905 31.0474C34.9403 29.6209 33.7811 28.4749 32.3875 28.4783Z" fill="#B4CF1F"/>
</svg>
