<svg width="82" height="36" viewBox="0 0 82 36" fill="none" xmlns="http://www.w3.org/2000/svg">
<path d="M17.4313 4.00272C18.332 0.770641 20.7723 -0.0203434 23.9951 0.000394009C34.7878 0.0744562 45.5804 0.0270564 56.3763 0.0300189C56.8554 0.0300189 57.3345 0.0300189 57.8105 0.0477938C59.6981 0.121856 61.1418 0.895065 62.1831 2.37038C63.8376 4.7226 65.5464 7.04519 67.1914 9.40333C67.6002 9.9899 68.0442 10.3069 68.8299 10.3543C70.74 10.4669 72.6404 10.6713 74.5441 10.8372C77.2111 11.0682 78.9742 12.6176 79.1786 15.0972C79.316 16.7651 79.2393 18.4448 79.2553 20.1216C79.2617 20.7052 79.2553 21.2918 79.2553 21.9317C81.2324 22.4146 81.7882 23.6647 81.686 25.3237C81.6317 26.2095 81.7019 27.0983 81.6668 27.9841C81.6029 29.7438 80.584 30.674 78.658 30.7303C77.6008 30.7599 76.5436 30.7362 75.4672 30.7362C74.1608 33.8527 71.909 35.7458 68.2805 35.7784C64.5755 35.8109 62.2949 33.8705 60.9374 30.8014H36.5892C35.1998 34.0246 32.718 35.9354 28.8149 35.7073C25.4228 35.5058 23.3115 33.6365 22.0818 30.6977C20.9224 30.6977 19.7566 30.7125 18.5907 30.6947C16.4922 30.6621 15.4382 29.7408 15.336 27.8241C15.2881 26.9383 15.1987 26.0288 15.3616 25.1667C15.5468 24.195 15.994 23.2678 16.3709 22.1954C15.962 22.1954 15.3999 22.1983 14.8409 22.1954C13.937 22.1865 13.0299 22.225 12.1324 22.148C11.1358 22.0591 10.4779 21.3659 10.4172 20.4919C10.3565 19.6269 10.9442 18.8537 11.9024 18.6433C12.3591 18.5426 12.851 18.5574 13.3301 18.5574C17.1598 18.5515 20.9863 18.5545 24.8159 18.5545C25.1896 18.5545 25.5602 18.5663 25.9339 18.5485C27.2817 18.4893 28.1505 17.7546 28.1473 16.691C28.1473 15.6986 27.3297 15.0172 26.0169 14.9343C25.5921 14.9076 25.1673 14.9195 24.7425 14.9195C19.105 14.9195 13.4707 14.9195 7.83318 14.9136C7.30616 14.9136 6.75998 14.9106 6.25212 14.798C5.35779 14.6025 4.7637 13.8856 4.73176 13.1035C4.69982 12.3332 5.25877 11.5956 6.16588 11.3615C6.66735 11.2312 7.21353 11.2104 7.74055 11.2104C11.4105 11.1986 15.0773 11.2045 18.7472 11.2016C19.1721 11.2016 19.6032 11.2223 20.0217 11.169C21.0054 11.0445 21.6666 10.3602 21.7049 9.48332C21.7465 8.6005 21.1492 7.86876 20.1622 7.69101C19.6991 7.60806 19.2104 7.63472 18.7313 7.63472C13.5218 7.63176 8.30909 7.63472 3.0996 7.63472C2.67479 7.63472 2.24359 7.65842 1.82517 7.61102C0.803077 7.49253 0.0428935 6.73413 0.00137088 5.84242C-0.0369577 4.98922 0.732808 4.18046 1.76129 4.04715C2.23082 3.9879 2.71631 4.00568 3.19542 4.00272C7.39559 4.00272 11.5958 4.00272 15.7959 4.00272H17.4313ZM29.3962 31.939C31.4819 31.9093 33.1269 30.3363 33.0853 28.4136C33.0438 26.485 31.3573 24.9949 29.2493 25.0245C27.1731 25.0512 25.4963 26.648 25.5442 28.5469C25.5921 30.4607 27.3041 31.9686 29.3962 31.939ZM68.2742 25.0216C66.1852 25.0275 64.5148 26.5769 64.5243 28.4966C64.5339 30.4074 66.2268 31.9449 68.3125 31.939C70.4078 31.933 72.0591 30.3955 72.0463 28.461C72.0336 26.5295 70.3727 25.0156 68.271 25.0216H68.2742Z" fill="#B4CF1F"/>
</svg>
