<svg width="34" height="24" viewBox="0 0 34 24" fill="none" xmlns="http://www.w3.org/2000/svg">
<g id="icono/comillas/backgroud">
<path id="&#226;&#128;&#157;" d="M15.9979 0V7.13068C15.9979 9.15543 15.5684 11.2242 14.7095 13.337C13.8744 15.4278 12.753 17.4085 11.3453 19.2792C9.93755 21.1279 8.3986 22.7015 6.72842 24L0 20.3356C1.19298 18.597 2.24281 16.6713 3.14947 14.5585C4.08 12.4457 4.54526 9.99175 4.54526 7.1967V0H15.9979ZM34 0V7.13068C34 9.15543 33.5705 11.2242 32.7116 13.337C31.8765 15.4278 30.7551 17.4085 29.3474 19.2792C27.9396 21.1279 26.3888 22.7015 24.6947 24L17.9663 20.3356C19.1832 18.597 20.2449 16.6713 21.1516 14.5585C22.0821 12.4457 22.5474 9.99175 22.5474 7.1967V0H34Z" fill="#B4CF1F"/>
</g>
</svg>
