<svg width="26" height="26" viewBox="0 0 26 26" fill="none" xmlns="http://www.w3.org/2000/svg">
<path d="M19 1H7C3.68629 1 1 3.68629 1 7V19C1 22.3137 3.68629 25 7 25H19C22.3137 25 25 22.3137 25 19V7C25 3.68629 22.3137 1 19 1Z" stroke="white" stroke-width="2" stroke-linecap="round" stroke-linejoin="round"/>
<path d="M17.8 12.2444C17.9481 13.2431 17.7775 14.263 17.3125 15.1592C16.8476 16.0553 16.1118 16.7821 15.21 17.236C14.3082 17.6899 13.2862 17.8479 12.2894 17.6875C11.2926 17.5271 10.3718 17.0565 9.65785 16.3426C8.94394 15.6286 8.47332 14.7078 8.31292 13.711C8.15252 12.7142 8.31052 11.6922 8.76443 10.7904C9.21834 9.88859 9.94506 9.15285 10.8412 8.68785C11.7374 8.22285 12.7573 8.05227 13.756 8.20036C14.7747 8.35142 15.7179 8.82612 16.4461 9.55433C17.1743 10.2825 17.649 11.2257 17.8 12.2444Z" stroke="white" stroke-width="2" stroke-linecap="round" stroke-linejoin="round"/>
<path d="M21.3437 5.46066C21.3998 5.83896 21.3352 6.22531 21.1591 6.56476C20.983 6.90421 20.7043 7.17949 20.3627 7.35142C20.0211 7.52336 19.634 7.58321 19.2564 7.52245C18.8788 7.46169 18.53 7.28343 18.2596 7.01301C17.9892 6.74259 17.8109 6.39379 17.7501 6.01622C17.6894 5.63864 17.7492 5.25153 17.9212 4.90993C18.0931 4.56833 18.3684 4.28964 18.7078 4.1135C19.0473 3.93737 19.4336 3.87275 19.8119 3.92885C20.1978 3.98607 20.555 4.16588 20.8309 4.44171C21.1067 4.71755 21.2865 5.07479 21.3437 5.46066Z" fill="white"/>
</svg>
